<!DOCTYPE svg PUBLIC "-//W3C//DTD SVG 1.1//EN" "http://www.w3.org/Graphics/SVG/1.1/DTD/svg11.dtd">
<!-- Uploaded to: SVG Repo, www.svgrepo.com, Transformed by: SVG Repo Mixer Tools -->
<svg height="800px" width="800px" version="1.1" id="_x35_" xmlns="http://www.w3.org/2000/svg" xmlns:xlink="http://www.w3.org/1999/xlink" viewBox="0 0 512 512" xml:space="preserve" fill="#000000">
<g id="SVGRepo_bgCarrier" stroke-width="0"/>
<g id="SVGRepo_tracerCarrier" stroke-linecap="round" stroke-linejoin="round"/>
<g id="SVGRepo_iconCarrier"> <g> <g> <path style="fill:#292928;" d="M152.113,288.069c-0.981,9.88-8.758,18.148-18.918,19.338c-3.013,0.351-6.026,0.07-8.758-0.84 c-1.051-0.28-2.102-0.701-3.153-1.121c-6.446-3.153-11.21-9.318-12.121-16.886l-1.611-13.312l-5.675-47.155l-1.752-14.784 l-2.873-24.243l-2.592-21.16l-0.911-7.777v-0.07l-4.344-36.014l-7.287-60.607l-2.733-22.701l-1.962-16.606 C76.022,12.36,84.499,1.57,96.271,0.169c11.631-1.472,22.351,6.866,23.963,18.356c0,0.14,0.07,0.351,0.07,0.491l0.701,5.606 l10.51,87.792l5.745,47.645v0.07l0.911,7.777l2.522,21.16l2.943,24.243l1.752,14.784l5.675,47.155l0.07,0.35l0.911,7.777 C152.254,284.986,152.254,286.527,152.113,288.069z"/> <g> <path style="fill:#b29a6c;" d="M170.751,112.413v76.653H53.25c0-7.287,1.051-14.434,3.013-21.16 c0.771-2.662,1.611-5.255,2.663-7.777c0-0.07,0-0.07,0.07-0.07c3.854-9.459,9.599-18.007,16.745-25.153 c4.134-4.135,8.688-7.778,13.663-10.861c11.841-7.357,25.644-11.631,40.498-11.631H170.751z"/> <path style="fill:#b29a6c;" d="M288.251,189.066H170.751v-76.653h40.849c27.746,0,52.129,14.924,65.582,37.135l1.471,2.522 c0.491,0.841,0.911,1.752,1.401,2.663c0.42,0.841,0.841,1.682,1.261,2.592c0.42,0.911,0.771,1.822,1.191,2.733v0.07h0.07 c0.981,2.522,1.892,5.115,2.662,7.777C287.2,174.632,288.251,181.709,288.251,189.066z"/> </g> <polygon style="fill:#292928;" points="308.22,213.309 307.24,228.092 304.227,275.248 295.048,420.073 289.162,512 52.269,512 51.639,501.84 46.454,420.073 44.072,382.658 37.415,277.629 37.275,275.248 34.262,228.092 33.281,213.309 "/> <polygon style="fill:#90b082;" points="304.227,275.248 295.048,420.073 46.454,420.073 44.072,382.658 37.415,277.629 37.275,275.248 "/> <circle style="fill:#292928;" cx="170.748" cy="345.845" r="60.725"/> <path style="fill:#b3986b;" d="M341.501,228.092H0l4.905-59.695c0-1.682,0.771-3.294,2.102-4.625 c0.911-0.91,2.032-1.682,3.364-2.242c1.471-0.701,3.153-1.121,4.974-1.332c0.631-0.139,1.261-0.139,1.892-0.139h307.029 c0.63,0,1.261,0,1.892,0.139c0.631,0.07,1.191,0.14,1.752,0.281c1.121,0.281,2.242,0.561,3.223,1.051 c1.331,0.56,2.452,1.332,3.363,2.242c1.331,1.332,2.102,2.943,2.102,4.625l0.56,6.796l1.752,20.95L341.501,228.092z"/> <path style="opacity:0.06;fill:#292928;" d="M341.501,228.092h-0.63l-4.274-51.919c0-0.701-0.14-1.331-0.42-1.962 c-0.631-1.961-2.382-3.573-4.695-4.694c-2.032-1.051-4.554-1.611-7.217-1.611H17.236c-6.797,0-12.332,3.714-12.332,8.267 l-4.274,51.919H0l4.905-59.695c0-1.682,0.771-3.294,2.102-4.625c0.911-0.84,2.032-1.611,3.364-2.242 c1.471-0.701,3.153-1.121,4.974-1.332c0.631-0.069,1.261-0.069,1.892-0.069h307.029c0.63,0,1.261,0.069,1.892,0.069 c0.631,0.07,1.191,0.14,1.752,0.281c1.121,0.281,2.242,0.561,3.223,1.051c1.331,0.63,2.452,1.402,3.363,2.242 c1.331,1.332,2.102,2.943,2.102,4.625l0.56,6.796l1.752,20.95L341.501,228.092z"/> <g> <path style="fill:#b3986b;" d="M156.617,368.136c-1.167-5.324-2.488-11.358,1.727-19.503c4.214-8.144,9.904-10.549,14.924-12.671 c4.775-2.019,8.899-3.762,12.21-10.16c3.311-6.398,2.353-10.771,1.243-15.835c-0.629-2.869-1.295-5.948-1.123-9.448 c-20.121-6.091-43.468,4.704-54.729,26.463c-12.518,24.19-5.355,52.759,15.999,63.809c0.536,0.278,1.079,0.531,1.623,0.782 c2.568-1.556,4.876-3.72,6.883-7.599C158.685,377.574,157.727,373.2,156.617,368.136z"/> <path style="fill:#b3986b;" d="M208.199,366.999c12.518-24.19,5.355-52.759-15.999-63.809c-0.387-0.2-0.78-0.378-1.171-0.564 c0.111,2.069,0.543,4.062,1.006,6.174c1.167,5.324,2.489,11.358-1.725,19.502c-4.215,8.144-9.904,10.549-14.924,12.671 c-4.775,2.019-8.898,3.762-12.209,10.16c-3.312,6.399-2.353,10.773-1.243,15.837c1.166,5.324,2.488,11.358-1.727,19.503 c-1.673,3.232-3.579,5.551-5.583,7.317C174.477,399.136,197.153,388.343,208.199,366.999z"/> </g> </g> <path style="opacity:0.07;fill:#f5f5f5;" d="M341.501,228.092H307.24l-3.013,47.155l-9.179,144.826L289.162,512H52.269 l-0.631-10.16l-5.185-81.766l-2.382-37.416l233.109-233.109l1.471,2.522c0.491,0.841,0.911,1.752,1.401,2.663 c0.42,0.841,0.841,1.682,1.261,2.592c0.42,0.911,0.771,1.822,1.191,2.733v0.07h41.759c1.261,0,2.522,0.139,3.643,0.35 c1.121,0.281,2.242,0.561,3.223,1.051c1.331,0.63,2.452,1.402,3.363,2.242c1.331,1.332,2.102,2.943,2.102,4.625l0.56,6.796 l1.752,20.95L341.501,228.092z"/> </g> </g>
</svg>